<svg width="1000" height="1000" viewBox="0 0 1000 1000" fill="none" xmlns="http://www.w3.org/2000/svg">
<path d="M342.259 578.196C325.852 578.196 311.683 574.787 299.751 567.969C287.891 561.08 278.764 551.349 272.372 538.778C265.98 526.136 262.784 511.257 262.784 494.141C262.784 477.308 265.98 462.536 272.372 449.822C278.835 437.038 287.855 427.095 299.432 419.993C311.009 412.82 324.609 409.233 340.234 409.233C350.32 409.233 359.837 410.866 368.786 414.134C377.805 417.33 385.76 422.301 392.649 429.048C399.609 435.795 405.078 444.389 409.055 454.83C413.033 465.199 415.021 477.557 415.021 491.903V503.729H280.895V477.734H378.054C377.983 470.348 376.385 463.778 373.26 458.026C370.135 452.202 365.767 447.621 360.156 444.283C354.616 440.945 348.153 439.276 340.767 439.276C332.884 439.276 325.959 441.193 319.993 445.028C314.027 448.793 309.375 453.764 306.037 459.943C302.77 466.051 301.101 472.763 301.03 480.078V502.77C301.03 512.287 302.77 520.455 306.25 527.273C309.73 534.02 314.595 539.205 320.845 542.827C327.095 546.378 334.411 548.153 342.791 548.153C348.402 548.153 353.48 547.372 358.026 545.81C362.571 544.176 366.513 541.797 369.851 538.672C373.189 535.547 375.71 531.676 377.415 527.06L413.423 531.108C411.151 540.625 406.818 548.935 400.426 556.037C394.105 563.068 386.009 568.537 376.136 572.443C366.264 576.278 354.972 578.196 342.259 578.196ZM529.359 411.364V441.193H435.289V411.364H529.359ZM458.514 372.159H497.079V525.781C497.079 530.966 497.86 534.943 499.423 537.713C501.056 540.412 503.187 542.259 505.815 543.253C508.443 544.247 511.355 544.744 514.551 544.744C516.966 544.744 519.167 544.567 521.156 544.212C523.216 543.857 524.778 543.537 525.843 543.253L532.342 573.402C530.282 574.112 527.335 574.893 523.5 575.746C519.735 576.598 515.119 577.095 509.65 577.237C499.991 577.521 491.291 576.065 483.549 572.869C475.808 569.602 469.664 564.56 465.119 557.741C460.645 550.923 458.443 542.401 458.514 532.173V372.159ZM631.232 578.196C614.897 578.196 600.87 574.609 589.151 567.436C577.504 560.263 568.519 550.355 562.198 537.713C555.948 525 552.823 510.369 552.823 493.821C552.823 477.202 556.019 462.536 562.411 449.822C568.803 437.038 577.823 427.095 589.471 419.993C601.19 412.82 615.039 409.233 631.019 409.233C644.3 409.233 656.055 411.683 666.282 416.584C676.58 421.413 684.783 428.267 690.891 437.145C696.999 445.952 700.479 456.25 701.332 468.04H664.471C662.979 460.156 659.428 453.587 653.817 448.331C648.278 443.004 640.856 440.341 631.552 440.341C623.668 440.341 616.744 442.472 610.778 446.733C604.812 450.923 600.16 456.96 596.822 464.844C593.555 472.727 591.921 482.173 591.921 493.182C591.921 504.332 593.555 513.92 596.822 521.946C600.089 529.901 604.67 536.044 610.565 540.376C616.531 544.638 623.526 546.768 631.552 546.768C637.234 546.768 642.312 545.703 646.786 543.572C651.332 541.371 655.131 538.21 658.185 534.091C661.239 529.972 663.335 524.964 664.471 519.07H701.332C700.408 530.646 696.999 540.909 691.104 549.858C685.21 558.736 677.184 565.696 667.028 570.739C656.871 575.71 644.94 578.196 631.232 578.196Z" fill="white"/>
<circle cx="750" cy="555" r="20" fill="#3B82F6"/>
</svg>
